<svg xmlns="http://www.w3.org/2000/svg" data-name="Layer 1" width="29" height="18"><rect id="backgroundrect" width="100%" height="100%" x="0" y="0" fill="none" stroke="none"/>
    <defs>
        <style>
            .cls-1 {
                fill: #0db04b;
            }

            .cls-2 {
                fill: #f27226;
            }

            .cls-3 {
                fill: #0e69af;
            }

            .cls-4 {
                fill: #fff;
            }
        </style>
    </defs>
    <title>logo-fpt-telecom</title>
    
    
    
    
    
    
        
<g class="currentLayer" style=""><title>Layer 1</title><path class="cls-1" d="M23.72,2.74 a3.73,3.73 0 0 0 -3.46,2.47 c0,0.08000000000000002 -0.12000000000000001,0.38000000000000006 -0.12000000000000001,0.38000000000000006 L18,15.05 h5 a3.7600000000000002,3.7600000000000002 0 0 0 3.59,-2.92 h0 l2.17,-9.39 z" id="svg_1"/><path class="cls-2" d="M15.37,0 a3.6900000000000004,3.6900000000000004 0 0 0 -3.54,2.6900000000000004 a3.59,3.59 0 0 0 -0.08000000000000002,0.35000000000000003 L8.35,17.78 h5 A3.68,3.68 0 0 0 16.92,15 h0 L20.38,0 z" id="svg_2"/><path class="cls-3" d="M5.76,2.74 A3.74,3.74 0 0 0 2.25,5.37 l0,0.11000000000000001 l-0.09000000000000002,0.33000000000000007 L0,15.05 H5.13 A3.6100000000000003,3.6100000000000003 0 0 0 8.5,12.6 l0.2,-0.8800000000000001 l2.08,-9 z" id="svg_3"/><path class="cls-4" d="M4.83,5.8100000000000005 H4.75 a1.59,1.59 0 0 0 -1,0.38000000000000006 A1.71,1.71 0 0 0 3.18,7 h0 L2,12 h0.06000000000000001 a1.59,1.59 0 0 0 1,-0.38000000000000006 a1.6800000000000002,1.6800000000000002 0 0 0 0.5900000000000001,-0.93 L4,9.58 H6.24 a1.6,1.6 0 0 0 1,-0.39000000000000007 a1.62,1.62 0 0 0 0.5900000000000001,-0.92 l0,-0.06000000000000001 H4.27 l0.24000000000000002,-1 H7.62 a1.57,1.57 0 0 0 1,-0.37000000000000005 a1.75,1.75 0 0 0 0.5900000000000001,-0.92 V5.8100000000000005 z" id="svg_4"/><path class="cls-4" d="M17.51,6.11 a1,1 0 0 0 -0.77,-0.30000000000000004 H12.36 L10.94,12 H11 a1.59,1.59 0 0 0 1,-0.38000000000000006 a1.6800000000000002,1.6800000000000002 0 0 0 0.5900000000000001,-0.93 l0.26,-1.09 h3 a1.44,1.44 0 0 0 1,-0.29000000000000004 a1.94,1.94 0 0 0 0.6100000000000001,-1 l0.27,-1.1400000000000001 a1.27,1.27 0 0 0 0,-0.28 A1,1 0 0 0 17.51,6.11 zm-1.37,2.1 h-3 l0.24000000000000002,-1 h3 z" id="svg_5"/><path class="cls-4" d="M26.43,6.11 a1,1 0 0 0 -0.7600000000000001,-0.30000000000000004 H21 v0.05000000000000001 a1.24,1.24 0 0 0 0,0.27 a1,1 0 0 0 0.29000000000000004,0.7500000000000001 a1,1 0 0 0 0.7600000000000001,0.30000000000000004 h1 L21.92,12 H22 a1.59,1.59 0 0 0 1,-0.38000000000000006 a1.6400000000000001,1.6400000000000001 0 0 0 0.6000000000000001,-0.93 l0.8,-3.48 h2.29 v0 a1.4100000000000001,1.4100000000000001 0 0 0 0,-0.28 A1,1 0 0 0 26.43,6.11 z" id="svg_6"/><path class="cls-3" d="M27.33,14 a1.06,1.06 0 1 1 1.06,1.07 A1.07,1.07 0 0 1 27.33,14 m1.87,0 a0.81,0.81 0 1 0 -0.81,0.8600000000000001 A0.8200000000000001,0.8200000000000001 0 0 0 29.2,14 M28,13.38 h0.45 c0.29000000000000004,0 0.45,0.1 0.45,0.35000000000000003 a0.31000000000000005,0.31000000000000005 0 0 1 -0.32000000000000006,0.33000000000000007 l0.32000000000000006,0.52 h-0.23 l-0.31000000000000005,-0.52 h-0.13 v0.52 H28 zm0.23,0.51 h0.2 c0.13,0 0.24000000000000002,0 0.24000000000000002,-0.17 s-0.13,-0.17 -0.24000000000000002,-0.17 h-0.2 z" id="svg_7"/></g></svg>