<svg id="Layer_1" data-name="Layer 1" xmlns="http://www.w3.org/2000/svg" viewBox="0 0 54.07 17.78">
    <defs>
        <style>
            .cls-1 {
                fill: #0db04b;
            }

            .cls-2 {
                fill: #f27226;
            }

            .cls-3 {
                fill: #0e69af;
            }

            .cls-4 {
                fill: #fff;
            }
        </style>
    </defs>
    <title>logo-fpt-telecom</title>
    <path class="cls-1"
        d="M23.72,2.74a3.73,3.73,0,0,0-3.46,2.47c0,.08-.12.38-.12.38L18,15.05h5a3.76,3.76,0,0,0,3.59-2.92h0l2.17-9.39Z" />
    <path class="cls-2"
        d="M15.37,0a3.69,3.69,0,0,0-3.54,2.69,3.59,3.59,0,0,0-.08.35L8.35,17.78h5A3.68,3.68,0,0,0,16.92,15h0L20.38,0Z" />
    <path class="cls-3"
        d="M5.76,2.74A3.74,3.74,0,0,0,2.25,5.37l0,.11-.09.33L0,15.05H5.13A3.61,3.61,0,0,0,8.5,12.6l.2-.88,2.08-9Z" />
    <path class="cls-4"
        d="M4.83,5.81H4.75a1.59,1.59,0,0,0-1,.38A1.71,1.71,0,0,0,3.18,7h0L2,12h.06a1.59,1.59,0,0,0,1-.38,1.68,1.68,0,0,0,.59-.93L4,9.58H6.24a1.6,1.6,0,0,0,1-.39,1.62,1.62,0,0,0,.59-.92l0-.06H4.27l.24-1H7.62a1.57,1.57,0,0,0,1-.37,1.75,1.75,0,0,0,.59-.92V5.81Z" />
    <path class="cls-4"
        d="M17.51,6.11a1,1,0,0,0-.77-.3H12.36L10.94,12H11a1.59,1.59,0,0,0,1-.38,1.68,1.68,0,0,0,.59-.93l.26-1.09h3a1.44,1.44,0,0,0,1-.29,1.94,1.94,0,0,0,.61-1l.27-1.14a1.27,1.27,0,0,0,0-.28A1,1,0,0,0,17.51,6.11Zm-1.37,2.1h-3l.24-1h3Z" />
    <path class="cls-4"
        d="M26.43,6.11a1,1,0,0,0-.76-.3H21v.05a1.24,1.24,0,0,0,0,.27,1,1,0,0,0,.29.75,1,1,0,0,0,.76.3h1L21.92,12H22a1.59,1.59,0,0,0,1-.38,1.64,1.64,0,0,0,.6-.93l.8-3.48h2.29v0a1.41,1.41,0,0,0,0-.28A1,1,0,0,0,26.43,6.11Z" />
    <path class="cls-3"
        d="M27.33,14a1.06,1.06,0,1,1,1.06,1.07A1.07,1.07,0,0,1,27.33,14m1.87,0a.81.81,0,1,0-.81.86A.82.82,0,0,0,29.2,14M28,13.38h.45c.29,0,.45.1.45.35a.31.31,0,0,1-.32.33l.32.52h-.23l-.31-.52h-.13v.52H28Zm.23.51h.2c.13,0,.24,0,.24-.17s-.13-.17-.24-.17h-.2Z" />    
</svg>